<svg width="165" height="34" viewBox="0 0 165 34" fill="none" xmlns="http://www.w3.org/2000/svg">
<path d="M10.094 14.1284L16.5035 7.60064L22.9157 14.1337L26.6431 10.3334L16.5035 0L6.36398 10.3307L10.094 14.1284Z" fill="white"/>
<path d="M0 16.8125L3.72864 13.0136L7.45728 16.8125L3.72864 20.6115L0 16.8125Z" fill="white"/>
<path d="M10.094 19.4956L16.5035 26.026L22.9157 19.4929L26.6457 23.2879L16.5035 33.624L6.35877 23.2906L10.094 19.4956Z" fill="white"/>
<path d="M25.5431 16.8135L29.2717 13.0146L33.0003 16.8135L29.2717 20.6124L25.5431 16.8135Z" fill="white"/>
<path d="M20.2857 16.8106L16.5035 12.9546L13.7067 15.8041L13.3835 16.1308L12.7162 16.8106L12.7214 16.8186L16.5035 20.6694L20.2883 16.8106H20.2857Z" fill="white"/>
<path d="M38.818 8.14772H46.9296C48.9419 8.14772 50.4642 8.67886 51.4964 9.74115C51.8852 10.1335 52.1918 10.6024 52.3975 11.1191C52.6031 11.6359 52.7036 12.1899 52.6928 12.7474V12.7979C52.6998 13.2546 52.6373 13.7097 52.5077 14.147C52.3922 14.5234 52.2246 14.8811 52.0098 15.2093C51.8097 15.5187 51.5675 15.7977 51.2904 16.0378C51.0198 16.2752 50.7233 16.4801 50.4068 16.6487C51.3195 16.9726 52.1402 17.5197 52.797 18.2421C53.3774 18.9149 53.6676 19.8444 53.6676 21.0306V21.081C53.6841 21.8219 53.5259 22.5559 53.2063 23.2215C52.8965 23.8348 52.4425 24.3604 51.8847 24.7512C51.2542 25.182 50.552 25.4924 49.8125 25.6674C48.9339 25.8797 48.0332 25.9823 47.1303 25.9729H38.818V8.14772ZM46.1164 15.3553C46.8182 15.3899 47.5166 15.236 48.1417 14.9092C48.3855 14.7641 48.5845 14.5524 48.7163 14.298C48.848 14.0436 48.9072 13.7567 48.8872 13.4698V13.4193C48.9001 13.1549 48.8474 12.8915 48.7339 12.6534C48.6205 12.4153 48.45 12.2101 48.2381 12.0569C47.8055 11.7436 47.1807 11.5869 46.364 11.5869H42.5688V15.3553H46.1164ZM47.1408 22.539C47.84 22.5789 48.5359 22.4159 49.1478 22.069C49.3862 21.9129 49.5792 21.6946 49.7066 21.4368C49.8341 21.179 49.8913 20.891 49.8725 20.603V20.5525C49.8819 20.2788 49.8252 20.0068 49.7075 19.7605C49.5898 19.5142 49.4147 19.301 49.1974 19.1397C48.749 18.7856 48.0244 18.6086 47.0235 18.6086H42.5688V22.539H47.1408Z" fill="white"/>
<path d="M58.5002 8.14772H62.3501V25.9782H58.5002V8.14772Z" fill="white"/>
<path d="M68.1758 8.14772H71.726L79.9315 19.1211V8.14772H83.7318V25.9782H80.4554L71.9814 14.6436V25.9782H68.1758V8.14772Z" fill="white"/>
<path d="M95.3884 8.02025H98.9334L106.432 25.9782H102.413L100.813 21.9787H93.4127L91.8122 25.9782H87.8867L95.3884 8.02025ZM99.439 18.5156L97.1088 12.7315L94.7889 18.5156H99.439Z" fill="white"/>
<path d="M110.595 8.14772H114.145L122.346 19.1211V8.14772H126.146V25.9782H122.87L114.396 14.6436V25.9782H110.595V8.14772Z" fill="white"/>
<path d="M140.003 26.2915C138.776 26.3022 137.559 26.0601 136.426 25.5798C135.36 25.1311 134.392 24.4695 133.581 23.634C132.769 22.7984 132.13 21.8057 131.701 20.7145C131.248 19.5731 131.018 18.3525 131.025 17.1214V17.0709C131.005 14.6442 131.922 12.3066 133.577 10.5618C134.392 9.70948 135.367 9.03379 136.445 8.57529C137.617 8.0807 138.875 7.83403 140.143 7.85028C140.894 7.84458 141.643 7.91306 142.38 8.05477C143.01 8.17631 143.627 8.3641 144.22 8.61513C144.758 8.84581 145.269 9.13615 145.745 9.48089C146.209 9.81711 146.645 10.192 147.048 10.6016L144.601 13.4804C143.975 12.8925 143.273 12.3948 142.515 12.0012C141.77 11.6383 140.953 11.4565 140.128 11.47C139.441 11.4625 138.76 11.6041 138.131 11.8852C137.502 12.1664 136.938 12.5807 136.478 13.1006C136.022 13.6192 135.665 14.22 135.425 14.872C135.174 15.561 135.048 16.2908 135.053 17.0258V17.0762C135.05 17.8102 135.176 18.5386 135.425 19.2273C135.662 19.8817 136.016 20.4858 136.468 21.0093C136.924 21.5357 137.486 21.9561 138.116 22.242C138.745 22.5279 139.428 22.6727 140.117 22.6665C140.995 22.6947 141.866 22.5022 142.653 22.1061C143.403 21.6899 144.096 21.1756 144.715 20.5764L147.165 23.0994C146.733 23.5778 146.265 24.0217 145.766 24.4272C145.275 24.8223 144.743 25.1599 144.178 25.4337C143.577 25.7222 142.943 25.9354 142.291 26.0685C141.538 26.2223 140.771 26.2971 140.003 26.2915Z" fill="white"/>
<path d="M151.709 8.14772H164.88V11.6373H155.496V15.2544H163.759V18.744H155.509V22.4886H165.01V25.9782H151.716L151.709 8.14772Z" fill="white"/>
</svg>
