<svg width="103" height="26" viewBox="0 0 103 26" fill="none" xmlns="http://www.w3.org/2000/svg">
<path d="M16.1128 18.3845H9.21115V25.2719H16.1128V18.3845Z" fill="white"/>
<path d="M9.19764 9.19224V16.0797H23.0144V9.19224H9.19764Z" fill="white"/>
<path d="M29.9295 0H9.21115V6.88744H29.9295V0Z" fill="white"/>
<path d="M6.90161 9.19224H0V16.0797H6.90161V9.19224Z" fill="white"/>
<path d="M36.8311 25.2719H42.1795V14.8262H52.4846V10.4188H42.1795V4.40742H53.5921V0H36.8311V25.2719Z" fill="white"/>
<path d="M56.2393 4.40742H63.9918V25.2719H69.2862V4.40742H77.0387V0H56.2393V4.40742Z" fill="white"/>
<path d="M85.4935 0H79.4158L87.1953 12.6427L79.2672 25.2854H85.3989L90.5988 16.6593H90.8014L96.0012 25.2854H102.16L94.2589 12.6427L101.971 0H95.9202L90.7879 8.61267H90.5853L85.4935 0Z" fill="white"/>
</svg>
