<svg width="94" height="39" viewBox="0 0 94 39" fill="none" xmlns="http://www.w3.org/2000/svg">
<path d="M27.2891 5.60972H0.62292C0.541358 5.60937 0.460625 5.62582 0.385724 5.65804C0.310823 5.69026 0.243399 5.73755 0.187649 5.79696C0.129111 5.85297 0.0828342 5.92053 0.0518269 5.99531C0.0208196 6.07009 0.00571978 6.15046 0.00748445 6.23137V32.8346C0.0064911 32.9158 0.0217102 32.9965 0.0521934 33.0719C0.0826766 33.1472 0.127836 33.2159 0.185083 33.2737C0.24233 33.3315 0.310517 33.3774 0.385678 33.4087C0.460839 33.4401 0.541465 33.4562 0.62292 33.4562H27.2891C27.3705 33.4562 27.4511 33.4401 27.5263 33.4087C27.6015 33.3774 27.6696 33.3315 27.7269 33.2737C27.7841 33.2159 27.8293 33.1472 27.8598 33.0719C27.8903 32.9965 27.9055 32.9158 27.9045 32.8346V6.23887C27.9026 6.07588 27.8374 5.92 27.7226 5.80405C27.6078 5.68809 27.4524 5.62109 27.2891 5.61722V5.60972ZM18.6055 23.5848C18.6047 23.7476 18.5401 23.9036 18.4254 24.0193C18.3677 24.0782 18.2988 24.1251 18.2228 24.1573C18.1468 24.1894 18.0651 24.2061 17.9825 24.2065H9.92192C9.75862 24.2026 9.60319 24.1357 9.48839 24.0197C9.37359 23.9038 9.30838 23.7478 9.30649 23.5848V15.511C9.30649 15.4304 9.32242 15.3505 9.35335 15.276C9.38428 15.2015 9.42959 15.1338 9.48674 15.0768C9.54389 15.0197 9.61175 14.9745 9.68642 14.9436C9.76109 14.9128 9.8411 14.8969 9.92192 14.8969H17.9825C18.064 14.8959 18.1448 14.911 18.2204 14.9415C18.2959 14.9719 18.3646 15.017 18.4226 15.0741C18.4805 15.1312 18.5265 15.1992 18.5579 15.2742C18.5893 15.3492 18.6055 15.4298 18.6055 15.511V23.5848Z" fill="white"/>
<path d="M83.1055 14.8969H75.0824C74.9185 14.8969 74.7612 14.9613 74.6446 15.0763C74.528 15.1913 74.4614 15.3475 74.4595 15.511V23.5549C74.4595 23.6365 74.4756 23.7174 74.5069 23.7928C74.5382 23.8682 74.5841 23.9367 74.6419 23.9945C74.6998 24.0522 74.7684 24.098 74.844 24.1292C74.9196 24.1605 75.0006 24.1765 75.0824 24.1765H83.143C83.3069 24.1746 83.4635 24.1082 83.5787 23.9918C83.6939 23.8755 83.7585 23.7185 83.7585 23.5549V15.511C83.7586 15.4271 83.7416 15.3441 83.7083 15.267C83.6751 15.19 83.6263 15.1205 83.5651 15.063C83.504 15.0054 83.4316 14.961 83.3526 14.9324C83.2735 14.9039 83.1894 14.8918 83.1055 14.8969Z" fill="white"/>
<path d="M73.799 5.60971H65.7384C65.6566 5.60971 65.5756 5.62583 65.5 5.65707C65.4244 5.68831 65.3557 5.73407 65.2979 5.79179C65.24 5.84951 65.1942 5.91806 65.1629 5.99348C65.1316 6.0689 65.1154 6.14973 65.1154 6.23137V14.2752C65.1154 14.4401 65.1811 14.5982 65.2979 14.7148C65.4147 14.8314 65.5732 14.8969 65.7384 14.8969H73.799C73.8805 14.8969 73.9611 14.8808 74.0363 14.8494C74.1115 14.8181 74.1796 14.7722 74.2369 14.7143C74.2941 14.6565 74.3393 14.5879 74.3698 14.5126C74.4003 14.4372 74.4154 14.3565 74.4144 14.2752V6.23886C74.4164 6.15696 74.402 6.07549 74.372 5.99924C74.3419 5.92299 74.2969 5.85352 74.2396 5.7949C74.1822 5.73627 74.1137 5.68969 74.038 5.6579C73.9624 5.6261 73.8811 5.60969 73.799 5.60971Z" fill="white"/>
<path d="M92.397 5.60971H84.3364C84.1725 5.61169 84.016 5.67807 83.9007 5.79444C83.7855 5.91081 83.7209 6.06779 83.7209 6.23137V14.2752C83.7209 14.4388 83.7855 14.5958 83.9007 14.7122C84.016 14.8286 84.1725 14.8949 84.3364 14.8969H92.397C92.5622 14.8969 92.7207 14.8314 92.8375 14.7148C92.9543 14.5982 93.0199 14.4401 93.0199 14.2752V6.23886C93.0209 6.1566 93.0056 6.07498 92.9747 5.99869C92.9438 5.9224 92.8981 5.85296 92.8401 5.79444C92.7822 5.73592 92.7132 5.68947 92.6371 5.65776C92.5611 5.62605 92.4794 5.60971 92.397 5.60971Z" fill="white"/>
<path d="M73.799 24.214H65.7384C65.5745 24.214 65.4172 24.2784 65.3005 24.3934C65.1839 24.5084 65.1174 24.6646 65.1154 24.8281V32.872C65.1154 33.0369 65.1811 33.195 65.2979 33.3116C65.4147 33.4282 65.5732 33.4937 65.7384 33.4937H73.799C73.8805 33.4937 73.9611 33.4775 74.0363 33.4462C74.1115 33.4149 74.1796 33.3689 74.2369 33.3111C74.2941 33.2533 74.3393 33.1847 74.3698 33.1093C74.4003 33.034 74.4154 32.9533 74.4144 32.872V24.7907C74.4049 24.6344 74.3358 24.4876 74.2214 24.3804C74.107 24.2732 73.9559 24.2137 73.799 24.214Z" fill="white"/>
<path d="M92.397 24.214H84.3364C84.2556 24.214 84.1755 24.2299 84.1008 24.2608C84.0262 24.2916 83.9584 24.3368 83.9012 24.3939C83.8441 24.4509 83.7987 24.5186 83.7678 24.5931C83.7369 24.6676 83.7209 24.7475 83.7209 24.8281V32.872C83.7209 33.0356 83.7855 33.1926 83.9007 33.3089C84.016 33.4253 84.1725 33.4917 84.3364 33.4937H92.397C92.5622 33.4937 92.7207 33.4282 92.8375 33.3116C92.9543 33.195 93.0199 33.0369 93.0199 32.872V24.7907C93.0085 24.6337 92.9379 24.4869 92.8223 24.3799C92.7067 24.2729 92.5547 24.2136 92.397 24.214Z" fill="white"/>
<path d="M59.8393 5.60971H51.8162C51.7344 5.60971 51.6534 5.62583 51.5778 5.65707C51.5022 5.68831 51.4335 5.73406 51.3757 5.79178C51.3178 5.84951 51.2719 5.91805 51.2406 5.99347C51.2093 6.06889 51.1932 6.14973 51.1932 6.23136V14.2752C51.1932 14.4401 51.2589 14.5982 51.3757 14.7148C51.4925 14.8314 51.651 14.8969 51.8162 14.8969H59.8768C60.0407 14.8949 60.1972 14.8286 60.3124 14.7122C60.4276 14.5958 60.4922 14.4388 60.4922 14.2752V6.23886C60.4934 6.15401 60.4771 6.06983 60.4444 5.9915C60.4116 5.91318 60.3632 5.84236 60.302 5.78342C60.2409 5.72448 60.1682 5.67867 60.0887 5.64879C60.0091 5.61892 59.9242 5.60561 59.8393 5.60971Z" fill="white"/>
<path d="M59.8393 24.214H51.8162C51.6523 24.214 51.4949 24.2785 51.3783 24.3934C51.2617 24.5084 51.1952 24.6646 51.1932 24.8282V32.872C51.1932 33.0369 51.2589 33.195 51.3757 33.3116C51.4925 33.4282 51.651 33.4937 51.8162 33.4937H59.8768C60.0407 33.4917 60.1972 33.4253 60.3124 33.3089C60.4276 33.1926 60.4922 33.0356 60.4922 32.872V24.7907C60.4874 24.71 60.4667 24.631 60.4313 24.5583C60.3959 24.4856 60.3464 24.4206 60.2858 24.3671C60.2251 24.3135 60.1544 24.2724 60.0778 24.2461C60.0012 24.2198 59.9201 24.2089 59.8393 24.214Z" fill="white"/>
<path d="M51.1557 15.5035C51.1557 15.4223 51.1396 15.3418 51.1082 15.2668C51.0768 15.1918 51.0307 15.1237 50.9728 15.0666C50.9148 15.0095 50.8461 14.9644 50.7706 14.934C50.6951 14.9035 50.6142 14.8884 50.5328 14.8894H41.8567V6.23887C41.856 6.07612 41.7913 5.92015 41.6766 5.80446C41.6189 5.74552 41.55 5.69864 41.474 5.6665C41.398 5.63435 41.3164 5.61759 41.2338 5.61722H33.1731C33.0916 5.61687 33.0108 5.63332 32.9359 5.66554C32.861 5.69775 32.7936 5.74505 32.7379 5.80446C32.6793 5.86047 32.6331 5.92803 32.6021 6.00281C32.5711 6.07759 32.556 6.15796 32.5578 6.23887V32.8271C32.5568 32.9083 32.5719 32.989 32.6024 33.0644C32.6329 33.1398 32.6781 33.2084 32.7353 33.2662C32.7925 33.324 32.8607 33.3699 32.9359 33.4013C33.0111 33.4326 33.0917 33.4487 33.1731 33.4487H41.2338C41.3159 33.4497 41.3974 33.4343 41.4734 33.4034C41.5494 33.3725 41.6184 33.3268 41.6765 33.2689C41.7345 33.211 41.7804 33.142 41.8114 33.0661C41.8423 32.9903 41.8577 32.909 41.8567 32.8271V24.1691H50.5328C50.6148 24.1701 50.6963 24.1547 50.7723 24.1238C50.8484 24.0929 50.9174 24.0471 50.9755 23.9892C51.0335 23.9313 51.0794 23.8624 51.1104 23.7865C51.1413 23.7106 51.1567 23.6293 51.1557 23.5474V15.5035Z" fill="white"/>
</svg>
