<svg width="118" height="24" viewBox="0 0 118 24" fill="none" xmlns="http://www.w3.org/2000/svg">
<path d="M7.17914 10.0485L11.7378 5.4058L16.2983 10.0523L18.9494 7.3494L11.7378 0L4.52625 7.34751L7.17914 10.0485Z" fill="white"/>
<path d="M0 11.9576L2.65192 9.25567L5.30384 11.9576L2.65192 14.6595L0 11.9576Z" fill="white"/>
<path d="M7.17914 13.8658L11.7378 18.5104L16.2983 13.8639L18.9512 16.5631L11.7378 23.9144L4.52254 16.565L7.17914 13.8658Z" fill="white"/>
<path d="M18.167 11.9583L20.8189 9.25634L23.4708 11.9582L20.8189 14.6602L18.167 11.9583Z" fill="white"/>
<path d="M14.4278 11.9562L11.7378 9.21367L9.74861 11.2404L9.51873 11.4727L9.04414 11.9562L9.04784 11.9619L11.7378 14.7007L14.4296 11.9562H14.4278Z" fill="white"/>
<path d="M27.6085 5.7949H33.3778C34.8089 5.7949 35.8916 6.17267 36.6257 6.92819C36.9023 7.20728 37.1204 7.54071 37.2666 7.90826C37.4129 8.27581 37.4844 8.6698 37.4767 9.06634V9.10223C37.4816 9.42707 37.4372 9.75074 37.345 10.0617C37.2629 10.3295 37.1437 10.5839 36.9909 10.8173C36.8486 11.0374 36.6763 11.2358 36.4793 11.4066C36.2868 11.5754 36.0759 11.7212 35.8508 11.841C36.5 12.0714 37.0837 12.4605 37.5508 12.9743C37.9636 13.4528 38.17 14.1139 38.17 14.9576V14.9935C38.1817 15.5204 38.0692 16.0424 37.8419 16.5158C37.6216 16.952 37.2987 17.3258 36.902 17.6038C36.4535 17.9102 35.9541 18.131 35.4281 18.2555C34.8033 18.4064 34.1627 18.4794 33.5205 18.4727H27.6085V5.7949ZM32.7993 10.9212C33.2985 10.9457 33.7952 10.8363 34.2398 10.6038C34.4132 10.5007 34.5547 10.3501 34.6484 10.1691C34.7422 9.98821 34.7843 9.78416 34.77 9.5801V9.54421C34.7792 9.35619 34.7417 9.16884 34.661 8.99948C34.5803 8.83013 34.4591 8.68422 34.3084 8.57524C34.0007 8.35236 33.5563 8.24092 32.9755 8.24092L30.2762 8.24092V10.9212L32.7993 10.9212ZM33.5279 16.0304C34.0252 16.0588 34.5202 15.9429 34.9554 15.6961C35.1249 15.5851 35.2622 15.4299 35.3528 15.2465C35.4435 15.0631 35.4842 14.8583 35.4708 14.6535V14.6176C35.4775 14.4229 35.4372 14.2294 35.3535 14.0543C35.2698 13.8791 35.1452 13.7275 34.9906 13.6127C34.6718 13.3609 34.1564 13.235 33.4445 13.235L30.2762 13.235V16.0304H33.5279Z" fill="white"/>
<path d="M41.6071 5.7949H44.3453V18.4764H41.6071V5.7949Z" fill="white"/>
<path d="M48.4887 5.7949H51.0136L56.8496 13.5995V5.7949H59.5526V18.4764H57.2223L51.1953 10.415V18.4764H48.4887V5.7949Z" fill="white"/>
<path d="M67.8431 5.70424H70.3643L75.6979 18.4764H72.8393L71.701 15.6319H66.4379L65.2996 18.4764L62.5076 18.4764L67.8431 5.70424ZM70.724 13.1689L69.0666 9.05501L67.4167 13.1689H70.724Z" fill="white"/>
<path d="M78.6586 5.7949L81.1835 5.7949L87.0158 13.5995V5.7949H89.7188V18.4764H87.3885L81.3615 10.415V18.4764H78.6586V5.7949Z" fill="white"/>
<path d="M99.574 18.6993C98.7013 18.7069 97.8362 18.5347 97.0304 18.1931C96.2719 17.874 95.5838 17.4035 95.0065 16.8092C94.4293 16.2149 93.9746 15.5089 93.6694 14.7328C93.3473 13.921 93.1842 13.0528 93.1892 12.1772V12.1413C93.1749 10.4154 93.8267 8.75279 95.0042 7.51184C95.5835 6.90567 96.2772 6.4251 97.0434 6.099C97.8769 5.74723 98.7719 5.5718 99.6741 5.58335C100.208 5.5793 100.74 5.628 101.265 5.72879C101.713 5.81524 102.152 5.9488 102.574 6.12733C102.956 6.2914 103.32 6.4979 103.658 6.74309C103.988 6.98222 104.298 7.24883 104.585 7.54017L102.844 9.58765C102.399 9.16954 101.9 8.81555 101.361 8.53558C100.831 8.2775 100.25 8.14819 99.6629 8.15781C99.1743 8.1525 98.6902 8.25317 98.2427 8.45312C97.7953 8.65308 97.3946 8.94774 97.0675 9.31755C96.7432 9.68641 96.4892 10.1137 96.3186 10.5774C96.1399 11.0675 96.0501 11.5865 96.0535 12.1092V12.1451C96.0517 12.6671 96.1415 13.1852 96.3186 13.6751C96.487 14.1405 96.7384 14.5701 97.0601 14.9425C97.3846 15.3169 97.7843 15.6159 98.2321 15.8192C98.6799 16.0225 99.1653 16.1255 99.6555 16.1211C100.28 16.1411 100.899 16.0042 101.459 15.7225C101.993 15.4265 102.486 15.0607 102.926 14.6346L104.668 16.429C104.361 16.7692 104.028 17.0849 103.673 17.3734C103.324 17.6544 102.945 17.8945 102.544 18.0892C102.116 18.2944 101.665 18.446 101.202 18.5407C100.666 18.6501 100.12 18.7033 99.574 18.6993Z" fill="white"/>
<path d="M107.9 5.7949L117.267 5.7949V8.27681H110.593V10.8494H116.47V13.3313H110.603V15.9945H117.36V18.4764H107.905L107.9 5.7949Z" fill="white"/>
</svg>
