<svg width="139" height="24" viewBox="0 0 139 24" fill="none" xmlns="http://www.w3.org/2000/svg">
<path d="M72.2125 18.2769V14.3043H79.71V11.6614H72.2125V8.13752H80.5911V5.49463H68.6882V8.13752V20.9198H81.0233V18.2769H72.2125Z" fill="white"/>
<path d="M115.834 20.9198V11.6614L110.98 19.1579H109.65L104.796 11.6614V20.9198H101.271V5.49463H104.364L110.531 15.1852L116.266 5.49463H119.358V20.9198H115.834Z" fill="white"/>
<path d="M130.38 5.0625C125.526 5.0625 122.002 8.58636 122.002 12.9912C122.002 17.8448 125.526 21.3687 130.38 21.3687C134.786 21.3687 138.759 17.8448 138.759 12.9912C138.759 8.58636 134.786 5.0625 130.38 5.0625ZM130.38 8.15419C133.023 8.15419 135.667 10.3649 135.667 13.0078C135.667 16.0995 133.023 18.2936 130.38 18.2936C127.288 18.2936 125.094 16.0829 125.094 13.0078C125.094 10.3483 127.305 8.15419 130.38 8.15419Z" fill="white"/>
<path d="M99.0938 5.51123H95.1206L91.1475 10.3649L88.9365 13.0077L83.2012 20.9364H87.1743L91.1475 16.0828L95.1206 20.9364H99.0938L93.3585 13.0077L99.0938 5.51123Z" fill="white"/>
<path d="M89.8342 8.58631L87.1909 5.49463H83.2178L88.072 11.2292L89.8342 8.58631Z" fill="white"/>
<path d="M31.6663 5.51133H10.9527L9.6228 3.30061L10.9527 0.657715H31.6663L30.3364 3.30061L31.6663 5.51133Z" fill="white"/>
<path d="M27.71 20.9199L39.6128 0.657715H42.256L43.1371 3.30061L31.6831 23.1306L30.3532 20.9199H27.71Z" fill="white"/>
<path d="M46.6614 20.9199L58.5642 0.657715H60.7752L62.1052 3.30061L50.6512 23.1306L49.3212 20.9199H46.6614Z" fill="white"/>
<path d="M49.3045 9.03519L42.2559 20.9365H39.6126L38.2827 18.7258L45.3313 6.82446L46.6613 9.03519H49.3045Z" fill="white"/>
<path d="M22.4234 20.9197H1.70981L0.379883 18.709L1.70981 16.4983H22.4234L21.0935 18.709L22.4234 20.9197Z" fill="white"/>
<path d="M6.54736 8.58643H20.6446L21.5257 10.7972L20.6446 13.0079H6.54736L7.87729 10.7972L6.54736 8.58643Z" fill="white"/>
</svg>
